<svg xmlns="http://www.w3.org/2000/svg" viewBox="0 0 900 700">
  <rect width="900" height="700" fill="#0a160e"/>
  <g transform="translate(330 280) rotate(-22)">
    <ellipse cx="0" cy="0" rx="145" ry="185" fill="#77d48d" stroke="#b6ef9f" stroke-width="10"/>
    <g fill="#173321"><circle cx="-60" cy="-90" r="12"/><circle cx="0" cy="-105" r="12"/><circle cx="60" cy="-90" r="12"/><circle cx="-85" cy="-30" r="12"/><circle cx="-25" cy="-35" r="12"/><circle cx="35" cy="-35" r="12"/><circle cx="90" cy="-25" r="12"/><circle cx="-75" cy="35" r="12"/><circle cx="-15" cy="30" r="12"/><circle cx="50" cy="35" r="12"/><circle cx="0" cy="95" r="12"/></g>
    <rect x="-30" y="160" width="60" height="210" rx="28" fill="#d5b47a"/>
  </g>
  <circle cx="670" cy="200" r="72" fill="#d6f36d"/>
  <path d="M620 170c35 10 65 30 95 60M625 235c30-28 58-49 88-65" fill="none" stroke="#81943f" stroke-width="5" opacity=".7"/>
  <path d="M590 250c-80 55-125 115-140 180" fill="none" stroke="#b6ef9f" stroke-width="4" stroke-dasharray="10 12" opacity=".7"/>
</svg>
